<?xml version="1.0" encoding="UTF-8" standalone="no"?>
<!-- Generator: Adobe Illustrator 12.0.0, SVG Export Plug-In . SVG Version: 6.00 Build 51448)  -->

<svg
   xmlns:dc="http://purl.org/dc/elements/1.1/"
   xmlns:cc="http://creativecommons.org/ns#"
   xmlns:rdf="http://www.w3.org/1999/02/22-rdf-syntax-ns#"
   xmlns:svg="http://www.w3.org/2000/svg"
   xmlns="http://www.w3.org/2000/svg"
   xmlns:sodipodi="http://sodipodi.sourceforge.net/DTD/sodipodi-0.dtd"
   xmlns:inkscape="http://www.inkscape.org/namespaces/inkscape"
   version="1.1"
   id="Ebene_1"
   width="265.43546"
   height="214.43994"
   viewBox="0 0 265.43545 214.43995"
   overflow="visible"
   enable-background="new 0 0 249.606 198.607"
   xml:space="preserve"
   sodipodi:version="0.32"
   inkscape:version="0.48.2 r9819"
   sodipodi:docname="Pythagorean.svg"
   inkscape:output_extension="org.inkscape.output.svg.inkscape"
   style="overflow:visible"><metadata
   id="metadata24"><rdf:RDF><cc:Work
       rdf:about=""><dc:format>image/svg+xml</dc:format><dc:type
         rdf:resource="http://purl.org/dc/dcmitype/StillImage" /></cc:Work></rdf:RDF></metadata><defs
   id="defs22"><inkscape:perspective
     sodipodi:type="inkscape:persp3d"
     inkscape:vp_x="0 : 99.303497 : 1"
     inkscape:vp_y="0 : 1000 : 0"
     inkscape:vp_z="249.606 : 99.303497 : 1"
     inkscape:persp3d-origin="124.803 : 66.202332 : 1"
     id="perspective26" /></defs><sodipodi:namedview
   inkscape:window-height="1150"
   inkscape:window-width="1600"
   inkscape:pageshadow="2"
   inkscape:pageopacity="0.0"
   guidetolerance="10.0"
   gridtolerance="10.0"
   objecttolerance="10.0"
   borderopacity="1.0"
   bordercolor="#666666"
   pagecolor="#ffffff"
   id="base"
   showgrid="false"
   inkscape:zoom="2.1674158"
   inkscape:cx="132.63247"
   inkscape:cy="107.3035"
   inkscape:window-x="-8"
   inkscape:window-y="-8"
   inkscape:current-layer="Ebene_1"
   inkscape:showpageshadow="false"
   fit-margin-top="8"
   fit-margin-right="8"
   fit-margin-bottom="8"
   fit-margin-left="8"
   inkscape:window-maximized="1" />
<rect
   id="rect1316"
   x="157.93547"
   y="57.938957"
   width="99"
   height="99"
   style="fill:#fef3f2;stroke:#ee3835" />
<path
   id="path4814"
   d="m 157.94147,57.438956 c 0,100.000004 0,100.000004 0,100.000004"
   inkscape:connector-curvature="0"
   style="fill:none;stroke:#010101;stroke-width:1" />
<rect
   id="rect3937"
   x="108.92047"
   y="156.93996"
   width="49"
   height="49"
   style="fill:#f2f2f9;stroke:#3f55a5" />
<path
   id="path6562"
   d="m 108.42047,156.92996 c 50,0 50,0 50,0"
   inkscape:connector-curvature="0"
   style="fill:none;stroke:#010101;stroke-width:1" />
<rect
   id="rect7485"
   x="-92.398651"
   y="54.882874"
   transform="matrix(0.44108336,-0.89746614,0.89746614,0.44108336,0,0)"
   width="109.90115"
   height="112.12022"
   style="fill:#f9f2f8;stroke:#9d5aa3;stroke-width:1.00003767" />
<path
   id="path7487"
   d="m 157.88147,57.402956 c -49.019,99.744004 -49.019,99.744004 -49.019,99.744004"
   inkscape:connector-curvature="0"
   style="fill:none;stroke:#010101;stroke-width:1" />
<g
   enable-background="new    "
   id="g9"
   transform="translate(-26.773954,67.043946)">
	<path
   d="m 164.784,95.273 -2.27,7.946 -0.264,1.064 c -0.027,0.104 -0.04,0.19 -0.04,0.262 0,0.111 0.027,0.21 0.083,0.293 0.043,0.063 0.098,0.095 0.164,0.095 0.071,0 0.164,-0.056 0.279,-0.168 0.215,-0.209 0.5,-0.669 0.857,-1.38 l 0.398,0.281 c -0.454,0.789 -0.92,1.373 -1.4,1.754 -0.48,0.381 -0.924,0.571 -1.331,0.571 -0.282,0 -0.501,-0.084 -0.656,-0.252 -0.155,-0.168 -0.232,-0.412 -0.232,-0.732 0,-0.383 0.086,-0.887 0.258,-1.512 l 0.251,-0.852 c -1.123,1.325 -2.154,2.251 -3.098,2.778 -0.676,0.379 -1.34,0.569 -1.991,0.569 -0.626,0 -1.165,-0.232 -1.62,-0.698 -0.453,-0.465 -0.68,-1.105 -0.68,-1.921 0,-1.223 0.402,-2.513 1.209,-3.871 0.806,-1.357 1.829,-2.444 3.07,-3.259 0.971,-0.646 1.887,-0.97 2.748,-0.97 0.514,0 0.942,0.114 1.284,0.342 0.342,0.229 0.602,0.606 0.778,1.134 l 0.385,-1.194 1.818,-0.28 z m -4.313,0.609 c -0.544,0 -1.12,0.229 -1.731,0.69 -0.867,0.651 -1.637,1.617 -2.312,2.896 -0.675,1.281 -1.012,2.438 -1.012,3.473 0,0.521 0.149,0.934 0.449,1.236 0.301,0.303 0.645,0.454 1.033,0.454 0.962,0 2.008,-0.617 3.138,-1.851 1.378,-1.641 2.046,-3.323 2.003,-5.049 0,-0.65 -0.141,-1.122 -0.422,-1.414 -0.28,-0.289 -0.663,-0.435 -1.146,-0.435 z"
   id="path11"
   style="fill:#010101"
   inkscape:connector-curvature="0" />
</g>
<g
   enable-background="new    "
   id="g13"
   transform="translate(43.048751,-51.223549)">
	<path
   d="m 126.784,152.331 -2.326,8.144 c 0.719,-0.779 1.347,-1.312 1.882,-1.602 0.535,-0.288 1.096,-0.433 1.681,-0.433 0.824,0 1.498,0.285 2.022,0.856 0.524,0.57 0.787,1.344 0.787,2.32 0,1.259 -0.35,2.511 -1.047,3.758 -0.699,1.246 -1.575,2.217 -2.63,2.913 -1.055,0.695 -2.095,1.043 -3.119,1.043 -1.146,0 -2.322,-0.442 -3.528,-1.328 l 3.548,-12.312 c 0.273,-0.945 0.41,-1.5 0.41,-1.664 0,-0.203 -0.062,-0.355 -0.188,-0.457 -0.18,-0.141 -0.446,-0.211 -0.798,-0.211 -0.165,0 -0.416,0.027 -0.752,0.082 l 0,-0.453 4.058,-0.656 z m -4.544,15.801 c 0.751,0.435 1.412,0.651 1.982,0.651 0.661,0 1.347,-0.252 2.056,-0.757 0.71,-0.504 1.326,-1.355 1.848,-2.552 0.522,-1.197 0.783,-2.405 0.783,-3.626 0,-0.72 -0.169,-1.283 -0.508,-1.689 -0.338,-0.407 -0.737,-0.61 -1.197,-0.61 -0.691,0 -1.368,0.305 -2.029,0.914 -0.662,0.609 -1.142,1.434 -1.44,2.472 l -1.495,5.197 z"
   id="path15"
   style="fill:#010101"
   inkscape:connector-curvature="0" />
</g>
<g
   enable-background="new    "
   id="g17"
   transform="translate(5.8294667,7.8329566)">
	<path
   d="m 119.016,102.335 c -0.813,0.977 -1.634,1.694 -2.462,2.154 -0.828,0.46 -1.704,0.689 -2.626,0.689 -1.109,0 -1.975,-0.312 -2.597,-0.938 -0.621,-0.626 -0.932,-1.466 -0.932,-2.521 0,-1.196 0.334,-2.372 1.002,-3.529 0.668,-1.156 1.566,-2.096 2.695,-2.818 1.129,-0.724 2.236,-1.085 3.322,-1.085 0.852,0 1.488,0.177 1.91,0.531 0.422,0.354 0.633,0.788 0.633,1.303 0,0.482 -0.148,0.896 -0.444,1.237 -0.219,0.266 -0.487,0.397 -0.807,0.397 -0.242,0 -0.443,-0.077 -0.603,-0.233 -0.16,-0.155 -0.24,-0.35 -0.24,-0.582 0,-0.148 0.029,-0.284 0.088,-0.408 0.059,-0.125 0.18,-0.274 0.363,-0.449 0.183,-0.175 0.295,-0.301 0.334,-0.379 0.039,-0.077 0.059,-0.159 0.059,-0.244 0,-0.164 -0.075,-0.3 -0.225,-0.408 -0.229,-0.155 -0.551,-0.233 -0.969,-0.233 -0.771,0 -1.536,0.27 -2.292,0.808 -0.756,0.539 -1.402,1.304 -1.937,2.295 -0.646,1.202 -0.969,2.404 -0.969,3.606 0,0.797 0.229,1.427 0.685,1.892 0.457,0.464 1.079,0.696 1.866,0.696 0.606,0 1.207,-0.15 1.801,-0.451 0.594,-0.301 1.262,-0.846 2.002,-1.635 l 0.343,0.305 z"
   id="path19"
   inkscape:connector-curvature="0"
   style="fill:#010101" />
</g>
</svg>